<mxfile host="app.diagrams.net" modified="2020-11-27T12:00:59.600Z" agent="5.0 (Windows NT 10.0; Win64; x64) AppleWebKit/537.36 (KHTML, like Gecko) Chrome/86.0.4240.198 Safari/537.36" etag="BineYVZMrOHydfvXD-zu" version="13.10.1" type="github">
  <diagram id="R2lEEEUBdFMjLlhIrx00" name="Page-1">
    <mxGraphModel dx="2128" dy="580" grid="1" gridSize="10" guides="1" tooltips="1" connect="1" arrows="1" fold="1" page="1" pageScale="1" pageWidth="850" pageHeight="1100" math="0" shadow="0" extFonts="Permanent Marker^https://fonts.googleapis.com/css?family=Permanent+Marker">
      <root>
        <mxCell id="0" />
        <mxCell id="1" parent="0" />
        <mxCell id="lDoOoU1qY6ENuaS73OQB-1" value="Pel·licula" style="rounded=0;whiteSpace=wrap;html=1;" vertex="1" parent="1">
          <mxGeometry x="120" y="200" width="120" height="40" as="geometry" />
        </mxCell>
        <mxCell id="lDoOoU1qY6ENuaS73OQB-2" value="" style="endArrow=none;html=1;exitX=0;exitY=0;exitDx=0;exitDy=0;" edge="1" parent="1" source="lDoOoU1qY6ENuaS73OQB-3">
          <mxGeometry width="50" height="50" relative="1" as="geometry">
            <mxPoint x="110" y="190" as="sourcePoint" />
            <mxPoint x="110" y="140" as="targetPoint" />
          </mxGeometry>
        </mxCell>
        <mxCell id="lDoOoU1qY6ENuaS73OQB-3" value="Títol" style="ellipse;whiteSpace=wrap;html=1;" vertex="1" parent="1">
          <mxGeometry x="110" y="120" width="50" height="40" as="geometry" />
        </mxCell>
        <mxCell id="lDoOoU1qY6ENuaS73OQB-4" value="" style="endArrow=none;html=1;exitX=0.25;exitY=0;exitDx=0;exitDy=0;" edge="1" parent="1" source="lDoOoU1qY6ENuaS73OQB-1" target="lDoOoU1qY6ENuaS73OQB-3">
          <mxGeometry width="50" height="50" relative="1" as="geometry">
            <mxPoint x="120" y="200" as="sourcePoint" />
            <mxPoint x="110" y="140" as="targetPoint" />
          </mxGeometry>
        </mxCell>
        <mxCell id="lDoOoU1qY6ENuaS73OQB-5" value="" style="endArrow=none;html=1;exitX=0.37;exitY=0.035;exitDx=0;exitDy=0;exitPerimeter=0;" edge="1" parent="1" source="lDoOoU1qY6ENuaS73OQB-1">
          <mxGeometry width="50" height="50" relative="1" as="geometry">
            <mxPoint x="170" y="190" as="sourcePoint" />
            <mxPoint x="164" y="110" as="targetPoint" />
          </mxGeometry>
        </mxCell>
        <mxCell id="lDoOoU1qY6ENuaS73OQB-6" value="Nacionalitat" style="ellipse;whiteSpace=wrap;html=1;" vertex="1" parent="1">
          <mxGeometry x="130" y="70" width="70" height="50" as="geometry" />
        </mxCell>
        <mxCell id="lDoOoU1qY6ENuaS73OQB-7" value="" style="endArrow=none;html=1;" edge="1" parent="1" source="lDoOoU1qY6ENuaS73OQB-1">
          <mxGeometry width="50" height="50" relative="1" as="geometry">
            <mxPoint x="180" y="200" as="sourcePoint" />
            <mxPoint x="200" y="160" as="targetPoint" />
          </mxGeometry>
        </mxCell>
        <mxCell id="lDoOoU1qY6ENuaS73OQB-8" value="Productora" style="ellipse;whiteSpace=wrap;html=1;" vertex="1" parent="1">
          <mxGeometry x="170" y="130" width="70" height="40" as="geometry" />
        </mxCell>
        <mxCell id="lDoOoU1qY6ENuaS73OQB-9" value="" style="endArrow=none;html=1;" edge="1" parent="1">
          <mxGeometry width="50" height="50" relative="1" as="geometry">
            <mxPoint x="230" y="200" as="sourcePoint" />
            <mxPoint x="260" y="130" as="targetPoint" />
          </mxGeometry>
        </mxCell>
        <mxCell id="lDoOoU1qY6ENuaS73OQB-10" value="Data" style="ellipse;whiteSpace=wrap;html=1;" vertex="1" parent="1">
          <mxGeometry x="230" y="110" width="65" height="30" as="geometry" />
        </mxCell>
        <mxCell id="lDoOoU1qY6ENuaS73OQB-11" value="" style="endArrow=none;html=1;exitX=1;exitY=0.5;exitDx=0;exitDy=0;" edge="1" parent="1" source="lDoOoU1qY6ENuaS73OQB-1">
          <mxGeometry width="50" height="50" relative="1" as="geometry">
            <mxPoint x="260" y="260" as="sourcePoint" />
            <mxPoint x="310" y="220" as="targetPoint" />
          </mxGeometry>
        </mxCell>
        <mxCell id="lDoOoU1qY6ENuaS73OQB-12" value="Participar" style="rhombus;whiteSpace=wrap;html=1;" vertex="1" parent="1">
          <mxGeometry x="300" y="180" width="80" height="80" as="geometry" />
        </mxCell>
        <mxCell id="lDoOoU1qY6ENuaS73OQB-13" value="1" style="text;html=1;align=center;verticalAlign=middle;resizable=0;points=[];autosize=1;" vertex="1" parent="1">
          <mxGeometry x="240" y="200" width="20" height="20" as="geometry" />
        </mxCell>
        <mxCell id="lDoOoU1qY6ENuaS73OQB-14" value="" style="endArrow=none;html=1;exitX=1;exitY=0.5;exitDx=0;exitDy=0;" edge="1" parent="1" source="lDoOoU1qY6ENuaS73OQB-12">
          <mxGeometry width="50" height="50" relative="1" as="geometry">
            <mxPoint x="390" y="240" as="sourcePoint" />
            <mxPoint x="440" y="220" as="targetPoint" />
          </mxGeometry>
        </mxCell>
        <mxCell id="lDoOoU1qY6ENuaS73OQB-15" value="n" style="text;html=1;align=center;verticalAlign=middle;resizable=0;points=[];autosize=1;" vertex="1" parent="1">
          <mxGeometry x="380" y="200" width="20" height="20" as="geometry" />
        </mxCell>
        <mxCell id="lDoOoU1qY6ENuaS73OQB-16" value="Actors" style="rounded=0;whiteSpace=wrap;html=1;" vertex="1" parent="1">
          <mxGeometry x="440" y="200" width="120" height="40" as="geometry" />
        </mxCell>
        <mxCell id="lDoOoU1qY6ENuaS73OQB-17" value="" style="endArrow=none;html=1;entryX=0.5;entryY=1;entryDx=0;entryDy=0;" edge="1" parent="1" source="lDoOoU1qY6ENuaS73OQB-16" target="lDoOoU1qY6ENuaS73OQB-18">
          <mxGeometry width="50" height="50" relative="1" as="geometry">
            <mxPoint x="410" y="180" as="sourcePoint" />
            <mxPoint x="420" y="130" as="targetPoint" />
          </mxGeometry>
        </mxCell>
        <mxCell id="lDoOoU1qY6ENuaS73OQB-18" value="Nom" style="ellipse;whiteSpace=wrap;html=1;" vertex="1" parent="1">
          <mxGeometry x="472.5" y="130" width="55" height="25" as="geometry" />
        </mxCell>
        <mxCell id="lDoOoU1qY6ENuaS73OQB-19" value="" style="endArrow=none;html=1;" edge="1" parent="1">
          <mxGeometry width="50" height="50" relative="1" as="geometry">
            <mxPoint x="90" y="160" as="sourcePoint" />
            <mxPoint x="120" y="200" as="targetPoint" />
          </mxGeometry>
        </mxCell>
        <mxCell id="lDoOoU1qY6ENuaS73OQB-20" value="&lt;u&gt;IDPeli&lt;/u&gt;" style="ellipse;whiteSpace=wrap;html=1;" vertex="1" parent="1">
          <mxGeometry x="50" y="130" width="60" height="40" as="geometry" />
        </mxCell>
        <mxCell id="lDoOoU1qY6ENuaS73OQB-21" value="" style="endArrow=none;html=1;exitX=0;exitY=0;exitDx=0;exitDy=0;" edge="1" parent="1" source="lDoOoU1qY6ENuaS73OQB-16">
          <mxGeometry width="50" height="50" relative="1" as="geometry">
            <mxPoint x="370" y="160" as="sourcePoint" />
            <mxPoint x="420" y="140" as="targetPoint" />
          </mxGeometry>
        </mxCell>
        <mxCell id="lDoOoU1qY6ENuaS73OQB-22" value="" style="endArrow=none;html=1;entryX=0.5;entryY=1;entryDx=0;entryDy=0;" edge="1" parent="1" target="lDoOoU1qY6ENuaS73OQB-1">
          <mxGeometry width="50" height="50" relative="1" as="geometry">
            <mxPoint x="180" y="320" as="sourcePoint" />
            <mxPoint x="240" y="280" as="targetPoint" />
          </mxGeometry>
        </mxCell>
        <mxCell id="lDoOoU1qY6ENuaS73OQB-23" value="Dirigida" style="rhombus;whiteSpace=wrap;html=1;" vertex="1" parent="1">
          <mxGeometry x="140" y="320" width="80" height="80" as="geometry" />
        </mxCell>
        <mxCell id="lDoOoU1qY6ENuaS73OQB-24" value="Director" style="rounded=0;whiteSpace=wrap;html=1;" vertex="1" parent="1">
          <mxGeometry x="120" y="480" width="120" height="40" as="geometry" />
        </mxCell>
        <mxCell id="lDoOoU1qY6ENuaS73OQB-25" value="" style="endArrow=none;html=1;entryX=0.5;entryY=1;entryDx=0;entryDy=0;exitX=0.5;exitY=0;exitDx=0;exitDy=0;" edge="1" parent="1" source="lDoOoU1qY6ENuaS73OQB-24" target="lDoOoU1qY6ENuaS73OQB-23">
          <mxGeometry width="50" height="50" relative="1" as="geometry">
            <mxPoint x="140" y="470" as="sourcePoint" />
            <mxPoint x="190" y="420" as="targetPoint" />
          </mxGeometry>
        </mxCell>
        <mxCell id="lDoOoU1qY6ENuaS73OQB-26" value="1" style="text;html=1;align=center;verticalAlign=middle;resizable=0;points=[];autosize=1;" vertex="1" parent="1">
          <mxGeometry x="190" y="400" width="20" height="20" as="geometry" />
        </mxCell>
        <mxCell id="lDoOoU1qY6ENuaS73OQB-27" value="m" style="text;html=1;align=center;verticalAlign=middle;resizable=0;points=[];autosize=1;" vertex="1" parent="1">
          <mxGeometry x="175" y="240" width="30" height="20" as="geometry" />
        </mxCell>
        <mxCell id="lDoOoU1qY6ENuaS73OQB-28" value="" style="endArrow=none;html=1;entryX=0.5;entryY=1;entryDx=0;entryDy=0;" edge="1" parent="1" source="lDoOoU1qY6ENuaS73OQB-29" target="lDoOoU1qY6ENuaS73OQB-24">
          <mxGeometry width="50" height="50" relative="1" as="geometry">
            <mxPoint x="130" y="580" as="sourcePoint" />
            <mxPoint x="160" y="530" as="targetPoint" />
          </mxGeometry>
        </mxCell>
        <mxCell id="lDoOoU1qY6ENuaS73OQB-29" value="Nom" style="ellipse;whiteSpace=wrap;html=1;" vertex="1" parent="1">
          <mxGeometry x="145" y="565" width="60" height="30" as="geometry" />
        </mxCell>
        <mxCell id="lDoOoU1qY6ENuaS73OQB-30" value="Nacionalitat" style="ellipse;whiteSpace=wrap;html=1;" vertex="1" parent="1">
          <mxGeometry x="210" y="560" width="70" height="40" as="geometry" />
        </mxCell>
        <mxCell id="lDoOoU1qY6ENuaS73OQB-32" value="" style="endArrow=none;html=1;entryX=0.75;entryY=1;entryDx=0;entryDy=0;exitX=0.4;exitY=-0.025;exitDx=0;exitDy=0;exitPerimeter=0;" edge="1" parent="1" source="lDoOoU1qY6ENuaS73OQB-30" target="lDoOoU1qY6ENuaS73OQB-24">
          <mxGeometry width="50" height="50" relative="1" as="geometry">
            <mxPoint x="180" y="580" as="sourcePoint" />
            <mxPoint x="230" y="530" as="targetPoint" />
          </mxGeometry>
        </mxCell>
        <mxCell id="lDoOoU1qY6ENuaS73OQB-33" value="" style="endArrow=none;html=1;entryX=0.117;entryY=1.035;entryDx=0;entryDy=0;entryPerimeter=0;" edge="1" parent="1" target="lDoOoU1qY6ENuaS73OQB-24">
          <mxGeometry width="50" height="50" relative="1" as="geometry">
            <mxPoint x="110" y="580" as="sourcePoint" />
            <mxPoint x="160" y="530" as="targetPoint" />
          </mxGeometry>
        </mxCell>
        <mxCell id="lDoOoU1qY6ENuaS73OQB-34" value="&lt;u&gt;CodiDirector&lt;/u&gt;" style="ellipse;whiteSpace=wrap;html=1;" vertex="1" parent="1">
          <mxGeometry x="60" y="565" width="80" height="50" as="geometry" />
        </mxCell>
        <mxCell id="lDoOoU1qY6ENuaS73OQB-35" value="&lt;u&gt;CodiActors&lt;/u&gt;" style="ellipse;whiteSpace=wrap;html=1;" vertex="1" parent="1">
          <mxGeometry x="400" y="115" width="65" height="50" as="geometry" />
        </mxCell>
        <mxCell id="lDoOoU1qY6ENuaS73OQB-36" value="" style="endArrow=none;html=1;exitX=0.657;exitY=0.035;exitDx=0;exitDy=0;exitPerimeter=0;" edge="1" parent="1" source="lDoOoU1qY6ENuaS73OQB-16">
          <mxGeometry width="50" height="50" relative="1" as="geometry">
            <mxPoint x="520" y="220" as="sourcePoint" />
            <mxPoint x="560" y="150" as="targetPoint" />
          </mxGeometry>
        </mxCell>
        <mxCell id="lDoOoU1qY6ENuaS73OQB-37" value="Nacionalitat" style="ellipse;whiteSpace=wrap;html=1;" vertex="1" parent="1">
          <mxGeometry x="540" y="122.5" width="70" height="40" as="geometry" />
        </mxCell>
        <mxCell id="lDoOoU1qY6ENuaS73OQB-38" value="" style="endArrow=none;html=1;entryX=0;entryY=0.5;entryDx=0;entryDy=0;" edge="1" parent="1" target="lDoOoU1qY6ENuaS73OQB-1">
          <mxGeometry width="50" height="50" relative="1" as="geometry">
            <mxPoint x="40" y="220" as="sourcePoint" />
            <mxPoint x="100" y="220" as="targetPoint" />
          </mxGeometry>
        </mxCell>
        <mxCell id="lDoOoU1qY6ENuaS73OQB-39" value="Disposa" style="rhombus;whiteSpace=wrap;html=1;" vertex="1" parent="1">
          <mxGeometry x="-40" y="180" width="80" height="80" as="geometry" />
        </mxCell>
        <mxCell id="lDoOoU1qY6ENuaS73OQB-40" value="1" style="text;html=1;align=center;verticalAlign=middle;resizable=0;points=[];autosize=1;" vertex="1" parent="1">
          <mxGeometry x="80" y="200" width="20" height="20" as="geometry" />
        </mxCell>
        <mxCell id="lDoOoU1qY6ENuaS73OQB-41" value="" style="endArrow=none;html=1;entryX=0;entryY=0.5;entryDx=0;entryDy=0;" edge="1" parent="1" target="lDoOoU1qY6ENuaS73OQB-39">
          <mxGeometry width="50" height="50" relative="1" as="geometry">
            <mxPoint x="-120" y="220" as="sourcePoint" />
            <mxPoint x="-100" y="210" as="targetPoint" />
          </mxGeometry>
        </mxCell>
        <mxCell id="lDoOoU1qY6ENuaS73OQB-42" value="Exemplars" style="rounded=0;whiteSpace=wrap;html=1;" vertex="1" parent="1">
          <mxGeometry x="-220" y="200" width="120" height="40" as="geometry" />
        </mxCell>
        <mxCell id="lDoOoU1qY6ENuaS73OQB-43" value="" style="endArrow=none;html=1;" edge="1" parent="1">
          <mxGeometry width="50" height="50" relative="1" as="geometry">
            <mxPoint x="-180" y="200" as="sourcePoint" />
            <mxPoint x="-180" y="150" as="targetPoint" />
          </mxGeometry>
        </mxCell>
        <mxCell id="lDoOoU1qY6ENuaS73OQB-44" value="Nom" style="ellipse;whiteSpace=wrap;html=1;" vertex="1" parent="1">
          <mxGeometry x="-200" y="125" width="50" height="40" as="geometry" />
        </mxCell>
        <mxCell id="lDoOoU1qY6ENuaS73OQB-45" value="" style="endArrow=none;html=1;" edge="1" parent="1">
          <mxGeometry width="50" height="50" relative="1" as="geometry">
            <mxPoint x="-150" y="200" as="sourcePoint" />
            <mxPoint x="-100" y="150" as="targetPoint" />
          </mxGeometry>
        </mxCell>
        <mxCell id="lDoOoU1qY6ENuaS73OQB-46" value="m" style="text;html=1;align=center;verticalAlign=middle;resizable=0;points=[];autosize=1;" vertex="1" parent="1">
          <mxGeometry x="-105" y="200" width="30" height="20" as="geometry" />
        </mxCell>
        <mxCell id="lDoOoU1qY6ENuaS73OQB-47" value="Característiques" style="ellipse;whiteSpace=wrap;html=1;" vertex="1" parent="1">
          <mxGeometry x="-140" y="125" width="100" height="40" as="geometry" />
        </mxCell>
        <mxCell id="lDoOoU1qY6ENuaS73OQB-48" value="" style="endArrow=none;html=1;" edge="1" parent="1">
          <mxGeometry width="50" height="50" relative="1" as="geometry">
            <mxPoint x="-200" y="198" as="sourcePoint" />
            <mxPoint x="-240" y="140" as="targetPoint" />
          </mxGeometry>
        </mxCell>
        <mxCell id="lDoOoU1qY6ENuaS73OQB-49" value="&lt;u&gt;IDExemplars&lt;/u&gt;" style="ellipse;whiteSpace=wrap;html=1;" vertex="1" parent="1">
          <mxGeometry x="-290" y="120" width="80" height="35" as="geometry" />
        </mxCell>
        <mxCell id="lDoOoU1qY6ENuaS73OQB-50" value="" style="endArrow=none;html=1;entryX=0.5;entryY=1;entryDx=0;entryDy=0;" edge="1" parent="1" target="lDoOoU1qY6ENuaS73OQB-42">
          <mxGeometry width="50" height="50" relative="1" as="geometry">
            <mxPoint x="-160" y="320" as="sourcePoint" />
            <mxPoint x="-140" y="270" as="targetPoint" />
          </mxGeometry>
        </mxCell>
        <mxCell id="lDoOoU1qY6ENuaS73OQB-51" value="Llogat" style="rhombus;whiteSpace=wrap;html=1;" vertex="1" parent="1">
          <mxGeometry x="-200" y="300" width="80" height="80" as="geometry" />
        </mxCell>
        <mxCell id="lDoOoU1qY6ENuaS73OQB-52" value="" style="endArrow=none;html=1;entryX=0.5;entryY=1;entryDx=0;entryDy=0;" edge="1" parent="1" target="lDoOoU1qY6ENuaS73OQB-51">
          <mxGeometry width="50" height="50" relative="1" as="geometry">
            <mxPoint x="-160" y="450" as="sourcePoint" />
            <mxPoint x="-130" y="460" as="targetPoint" />
          </mxGeometry>
        </mxCell>
        <mxCell id="lDoOoU1qY6ENuaS73OQB-71" style="edgeStyle=orthogonalEdgeStyle;rounded=0;orthogonalLoop=1;jettySize=auto;html=1;" edge="1" parent="1" source="lDoOoU1qY6ENuaS73OQB-53" target="lDoOoU1qY6ENuaS73OQB-72">
          <mxGeometry relative="1" as="geometry">
            <mxPoint x="-440" y="550" as="targetPoint" />
          </mxGeometry>
        </mxCell>
        <mxCell id="lDoOoU1qY6ENuaS73OQB-53" value="Client" style="rounded=0;whiteSpace=wrap;html=1;" vertex="1" parent="1">
          <mxGeometry x="-220" y="450" width="120" height="40" as="geometry" />
        </mxCell>
        <mxCell id="lDoOoU1qY6ENuaS73OQB-54" value="1" style="text;html=1;align=center;verticalAlign=middle;resizable=0;points=[];autosize=1;" vertex="1" parent="1">
          <mxGeometry x="-160" y="240" width="20" height="20" as="geometry" />
        </mxCell>
        <mxCell id="lDoOoU1qY6ENuaS73OQB-55" value="1" style="text;html=1;align=center;verticalAlign=middle;resizable=0;points=[];autosize=1;" vertex="1" parent="1">
          <mxGeometry x="-160" y="380" width="20" height="20" as="geometry" />
        </mxCell>
        <mxCell id="lDoOoU1qY6ENuaS73OQB-57" value="" style="endArrow=none;html=1;entryX=0.167;entryY=0.985;entryDx=0;entryDy=0;entryPerimeter=0;" edge="1" parent="1" target="lDoOoU1qY6ENuaS73OQB-53">
          <mxGeometry width="50" height="50" relative="1" as="geometry">
            <mxPoint x="-220" y="540" as="sourcePoint" />
            <mxPoint x="-190" y="500" as="targetPoint" />
          </mxGeometry>
        </mxCell>
        <mxCell id="lDoOoU1qY6ENuaS73OQB-58" value="&lt;u&gt;DNI&lt;/u&gt;" style="ellipse;whiteSpace=wrap;html=1;" vertex="1" parent="1">
          <mxGeometry x="-250" y="530" width="50" height="40" as="geometry" />
        </mxCell>
        <mxCell id="lDoOoU1qY6ENuaS73OQB-59" value="" style="endArrow=none;html=1;entryX=0.373;entryY=1.065;entryDx=0;entryDy=0;entryPerimeter=0;" edge="1" parent="1" target="lDoOoU1qY6ENuaS73OQB-53">
          <mxGeometry width="50" height="50" relative="1" as="geometry">
            <mxPoint x="-175" y="580" as="sourcePoint" />
            <mxPoint x="-130" y="490" as="targetPoint" />
          </mxGeometry>
        </mxCell>
        <mxCell id="lDoOoU1qY6ENuaS73OQB-60" value="Nom" style="ellipse;whiteSpace=wrap;html=1;" vertex="1" parent="1">
          <mxGeometry x="-200" y="570" width="50" height="40" as="geometry" />
        </mxCell>
        <mxCell id="lDoOoU1qY6ENuaS73OQB-64" value="" style="endArrow=none;html=1;entryX=0.75;entryY=1;entryDx=0;entryDy=0;" edge="1" parent="1" target="lDoOoU1qY6ENuaS73OQB-53">
          <mxGeometry width="50" height="50" relative="1" as="geometry">
            <mxPoint x="-120" y="540" as="sourcePoint" />
            <mxPoint x="-100" y="510" as="targetPoint" />
          </mxGeometry>
        </mxCell>
        <mxCell id="lDoOoU1qY6ENuaS73OQB-65" value="Direcció" style="ellipse;whiteSpace=wrap;html=1;" vertex="1" parent="1">
          <mxGeometry x="-140" y="530" width="50" height="40" as="geometry" />
        </mxCell>
        <mxCell id="lDoOoU1qY6ENuaS73OQB-66" value="" style="endArrow=none;html=1;entryX=1;entryY=1;entryDx=0;entryDy=0;" edge="1" parent="1" target="lDoOoU1qY6ENuaS73OQB-53">
          <mxGeometry width="50" height="50" relative="1" as="geometry">
            <mxPoint x="-70" y="530" as="sourcePoint" />
            <mxPoint x="-20" y="480" as="targetPoint" />
          </mxGeometry>
        </mxCell>
        <mxCell id="lDoOoU1qY6ENuaS73OQB-67" value="Telèfon" style="ellipse;whiteSpace=wrap;html=1;" vertex="1" parent="1">
          <mxGeometry x="-90" y="510" width="60" height="40" as="geometry" />
        </mxCell>
        <mxCell id="lDoOoU1qY6ENuaS73OQB-68" value="" style="endArrow=none;html=1;entryX=0.9;entryY=0.607;entryDx=0;entryDy=0;entryPerimeter=0;" edge="1" parent="1" target="lDoOoU1qY6ENuaS73OQB-51">
          <mxGeometry width="50" height="50" relative="1" as="geometry">
            <mxPoint x="-90" y="360" as="sourcePoint" />
            <mxPoint x="-60" y="350" as="targetPoint" />
          </mxGeometry>
        </mxCell>
        <mxCell id="lDoOoU1qY6ENuaS73OQB-69" value="4 Exemplars màxim" style="ellipse;whiteSpace=wrap;html=1;" vertex="1" parent="1">
          <mxGeometry x="-105" y="335" width="60" height="50" as="geometry" />
        </mxCell>
        <mxCell id="lDoOoU1qY6ENuaS73OQB-74" style="edgeStyle=orthogonalEdgeStyle;rounded=0;orthogonalLoop=1;jettySize=auto;html=1;entryX=0;entryY=0.75;entryDx=0;entryDy=0;" edge="1" parent="1" source="lDoOoU1qY6ENuaS73OQB-72" target="lDoOoU1qY6ENuaS73OQB-53">
          <mxGeometry relative="1" as="geometry">
            <mxPoint x="-270" y="490" as="targetPoint" />
            <Array as="points">
              <mxPoint x="-300" y="575" />
              <mxPoint x="-300" y="490" />
              <mxPoint x="-220" y="490" />
            </Array>
          </mxGeometry>
        </mxCell>
        <mxCell id="lDoOoU1qY6ENuaS73OQB-72" value="Avala" style="rhombus;whiteSpace=wrap;html=1;" vertex="1" parent="1">
          <mxGeometry x="-425" y="510" width="80" height="80" as="geometry" />
        </mxCell>
        <mxCell id="lDoOoU1qY6ENuaS73OQB-73" value="1" style="text;html=1;align=center;verticalAlign=middle;resizable=0;points=[];autosize=1;" vertex="1" parent="1">
          <mxGeometry x="-250" y="440" width="20" height="20" as="geometry" />
        </mxCell>
        <mxCell id="lDoOoU1qY6ENuaS73OQB-75" value="1" style="text;html=1;align=center;verticalAlign=middle;resizable=0;points=[];autosize=1;" vertex="1" parent="1">
          <mxGeometry x="-345" y="525" width="20" height="20" as="geometry" />
        </mxCell>
        <mxCell id="lDoOoU1qY6ENuaS73OQB-76" value="" style="endArrow=none;html=1;exitX=1;exitY=0;exitDx=0;exitDy=0;" edge="1" parent="1" source="lDoOoU1qY6ENuaS73OQB-51">
          <mxGeometry width="50" height="50" relative="1" as="geometry">
            <mxPoint x="-120" y="350" as="sourcePoint" />
            <mxPoint x="-70" y="320" as="targetPoint" />
          </mxGeometry>
        </mxCell>
        <mxCell id="lDoOoU1qY6ENuaS73OQB-77" value="DataInici" style="ellipse;whiteSpace=wrap;html=1;" vertex="1" parent="1">
          <mxGeometry x="-80" y="290" width="50" height="45" as="geometry" />
        </mxCell>
        <mxCell id="lDoOoU1qY6ENuaS73OQB-78" value="" style="endArrow=none;html=1;entryX=0;entryY=0.5;entryDx=0;entryDy=0;" edge="1" parent="1" target="lDoOoU1qY6ENuaS73OQB-51">
          <mxGeometry width="50" height="50" relative="1" as="geometry">
            <mxPoint x="-260" y="340" as="sourcePoint" />
            <mxPoint x="-200" y="350" as="targetPoint" />
          </mxGeometry>
        </mxCell>
        <mxCell id="lDoOoU1qY6ENuaS73OQB-80" value="DataInici" style="rounded=0;whiteSpace=wrap;html=1;" vertex="1" parent="1">
          <mxGeometry x="-370" y="325" width="120" height="30" as="geometry" />
        </mxCell>
        <mxCell id="lDoOoU1qY6ENuaS73OQB-81" value="" style="endArrow=none;html=1;exitX=0.25;exitY=0;exitDx=0;exitDy=0;" edge="1" parent="1" source="lDoOoU1qY6ENuaS73OQB-80">
          <mxGeometry width="50" height="50" relative="1" as="geometry">
            <mxPoint x="-400" y="290" as="sourcePoint" />
            <mxPoint x="-380" y="280" as="targetPoint" />
          </mxGeometry>
        </mxCell>
        <mxCell id="lDoOoU1qY6ENuaS73OQB-82" value="1" style="text;html=1;align=center;verticalAlign=middle;resizable=0;points=[];autosize=1;" vertex="1" parent="1">
          <mxGeometry x="-210" y="320" width="20" height="20" as="geometry" />
        </mxCell>
        <mxCell id="lDoOoU1qY6ENuaS73OQB-83" value="Devolució" style="ellipse;whiteSpace=wrap;html=1;" vertex="1" parent="1">
          <mxGeometry x="-425" y="260" width="85" height="30" as="geometry" />
        </mxCell>
      </root>
    </mxGraphModel>
  </diagram>
</mxfile>
